<svg xmlns="http://www.w3.org/2000/svg" viewBox="0 0 512 512">
  <defs>
    <linearGradient id="belly" x1="0" y1="0" x2="0" y2="1">
      <stop offset="0%" stop-color="#86efac"/>
      <stop offset="100%" stop-color="#4ade80"/>
    </linearGradient>
    <clipPath id="rounded">
      <rect width="512" height="512" rx="96"/>
    </clipPath>
  </defs>

  <!-- Polish flag background: white top, red bottom -->
  <g clip-path="url(#rounded)">
    <rect width="512" height="256" fill="#ffffff"/>
    <rect y="256" width="512" height="256" fill="#dc2626"/>
  </g>

  <!-- Back legs -->
  <ellipse cx="138" cy="370" rx="72" ry="36" fill="#16a34a" transform="rotate(-30 138 370)"/>
  <ellipse cx="374" cy="370" rx="72" ry="36" fill="#16a34a" transform="rotate(30 374 370)"/>

  <!-- Body -->
  <ellipse cx="256" cy="320" rx="155" ry="120" fill="#22c55e"/>

  <!-- Belly -->
  <ellipse cx="256" cy="335" rx="100" ry="78" fill="url(#belly)"/>

  <!-- Head -->
  <ellipse cx="256" cy="210" rx="155" ry="120" fill="#22c55e"/>

  <!-- Eyes (bulging on top) -->
  <ellipse cx="178" cy="148" rx="52" ry="50" fill="#22c55e"/>
  <ellipse cx="334" cy="148" rx="52" ry="50" fill="#22c55e"/>
  <ellipse cx="178" cy="145" rx="40" ry="38" fill="white"/>
  <ellipse cx="334" cy="145" rx="40" ry="38" fill="white"/>
  <circle cx="182" cy="145" r="22" fill="#1a1a2e"/>
  <circle cx="338" cy="145" r="22" fill="#1a1a2e"/>
  <circle cx="188" cy="138" r="7" fill="white"/>
  <circle cx="344" cy="138" r="7" fill="white"/>

  <!-- Mouth / smile -->
  <path d="M 185 265 Q 256 305 327 265" stroke="#15803d" stroke-width="8" fill="none" stroke-linecap="round"/>

  <!-- Nostrils -->
  <ellipse cx="234" cy="245" rx="10" ry="6" fill="#15803d"/>
  <ellipse cx="278" cy="245" rx="10" ry="6" fill="#15803d"/>

  <!-- Front feet -->
  <ellipse cx="130" cy="415" rx="42" ry="22" fill="#16a34a"/>
  <ellipse cx="382" cy="415" rx="42" ry="22" fill="#16a34a"/>
</svg>
